# Blender v2.76 (sub 0) OBJ File: ''
# www.blender.org
mtllib Ship_2_SM.mtl
o Ship_2
v -3.368927 0.874097 -0.283017
v -1.947143 -0.358243 -2.809394
v -2.958478 0.908897 0.599325
v -1.411585 0.158911 3.782557
v -1.821293 3.116653 -2.956604
v -2.317894 2.002029 2.802998
v -1.777940 0.004331 -0.989771
v -0.764353 -2.498100 -0.502376
v 0.172572 -2.461307 0.728790
v -1.056175 -1.312544 -1.285175
v -0.879863 -0.638316 0.691007
v -1.828612 4.686086 0.927283
v -2.524210 0.923747 -0.146290
v -1.635086 -0.523582 -4.206638
v -0.528597 2.862775 -3.946323
v 1.813749 -0.323189 2.833363
v -3.880929 1.606944 0.871211
v -0.000000 -5.484985 -4.801928
v -0.376298 -2.553155 -5.245836
v -0.000000 -3.806988 -4.725432
v -0.837893 -3.208312 -4.460586
v -0.000000 -1.635953 -1.868560
v -1.984699 -1.466326 -2.396831
v -0.000000 0.435298 4.979769
v -0.943971 -4.885837 -4.355392
v -0.227335 -2.471351 -4.772261
v -2.022267 1.229666 -2.229503
v -2.692430 2.670928 -1.012516
v 0.133877 5.439719 -2.088748
v -0.023680 5.389727 1.580455
v 1.979323 -1.462815 -2.374182
v -4.012668 1.315175 -0.979164
v -2.465041 2.364702 0.710857
v -0.577963 0.029173 4.758530
v -1.230539 0.558170 4.775654
v -2.379625 0.205113 0.752850
v -0.525923 -1.042346 4.759415
v 0.430061 -0.431998 4.717573
v 0.560762 0.015118 4.747312
v 3.368926 0.874097 -0.283018
v 4.012667 1.315174 -0.979168
v 1.947142 -0.358243 -2.809393
v 3.880929 1.606944 0.871210
v 2.641491 1.170445 1.091303
v 1.281706 2.062112 -3.893921
v 2.317890 2.002023 2.802994
v 0.879863 -0.638315 0.691007
v 1.800162 3.973163 1.826867
v 2.524210 0.923746 -0.146291
v -0.014237 -0.611372 1.368344
v 1.056175 -1.312544 -1.285174
v 0.837892 -3.208312 -4.460587
v 1.777940 0.004331 -0.989771
v 0.907590 -4.974134 -4.371459
v 2.145490 0.817587 -3.277374
v 0.328056 -2.602733 -5.135979
v 2.022267 1.229664 -2.229503
v 2.237770 4.086031 -1.268724
v 1.230543 0.558175 4.775654
v 2.651296 2.548515 0.243762
v 2.396197 0.177057 0.491069
v 0.689259 -2.470487 -0.688453
v 3.153434 0.782578 0.568784
vt 0.923929 0.837992
vt 0.910900 0.778969
vt 0.956406 0.793098
vt 0.624340 0.049911
vt 0.680393 0.017134
vt 0.693139 0.076871
vt 0.661078 0.081393
vt 0.115067 0.543995
vt 0.191699 0.591303
vt 0.074697 0.682222
vt 0.762926 0.130515
vt 0.852079 0.037661
vt 0.960589 0.178827
vt 0.891839 0.210261
vt 0.947497 0.278120
vt 0.517795 0.938389
vt 0.499446 0.787010
vt 0.847510 0.605328
vt 0.880848 0.567566
vt 0.815663 0.569423
vt 0.201539 0.909995
vt 0.562778 0.736051
vt 0.645487 0.606635
vt 0.583212 0.745894
vt 0.513524 0.721578
vt 0.579728 0.550266
vt 0.633292 0.476919
vt 0.674426 0.382300
vt 0.023922 0.451521
vt 0.213165 0.458425
vt 0.121798 0.346449
vt 0.631742 0.295433
vt 0.657821 0.962972
vt 0.489058 0.877043
vt 0.618708 0.903993
vt 0.761600 0.364027
vt 0.849093 0.346756
vt 0.936701 0.367610
vt 0.557013 0.393276
vt 0.055691 0.230346
vt 0.638858 0.213770
vt 0.571090 0.077863
vt 0.549746 0.296482
vt 0.522756 0.061607
vt 0.428931 0.747319
vt 0.000000 0.000000
vt 0.510209 0.039296
vt 0.522797 0.090995
vt 0.891796 0.308629
vt 0.852245 0.179982
vt 0.685307 0.124343
vt 0.253638 0.896009
vt 0.279636 0.621292
vt 0.501464 0.056119
vt 0.778846 0.828477
vt 0.825013 0.871937
vt 0.784387 0.898065
vt 0.817343 0.934341
vt 0.810487 0.963034
vt 0.215265 0.324738
vt 0.527518 0.026561
vt 0.861668 0.889850
vt 0.320068 0.873729
vt 0.379280 0.887807
vt 0.340354 0.893508
vt 0.665049 0.875693
vt 0.431950 0.834972
vt 0.633611 0.827950
vt 0.297214 0.301947
vt 0.300153 0.064278
vt 0.495860 0.611247
vt 0.734673 0.052947
vt 0.655539 0.842148
vt 0.808670 0.210643
vt 0.753049 0.276770
vt 0.719656 0.226079
vt 0.475505 0.933253
vt 0.371760 0.104098
vt 0.704972 0.504479
vt 0.417272 0.079214
vt 0.446945 0.090293
vt 0.356057 0.042026
vt 0.432188 0.059886
vt 0.436700 0.272921
vt 0.313169 0.447951
vt 0.368220 0.596438
vt 0.490204 0.347015
vt 0.413350 0.431315
vt 0.712842 0.640265
vt 0.765989 0.684458
vt 0.761777 0.542045
vt 0.511121 0.506307
vt 0.406293 0.528683
vt 0.367368 0.238259
vt 0.396113 0.407925
vt 0.381536 0.765299
vt 0.683702 0.800371
vt 0.632904 0.783212
vt 0.744416 0.835162
vt 0.715024 0.837879
vt 0.054157 0.939020
vt 0.016571 0.952776
vt 0.017572 0.906071
vt 0.851453 0.711046
vt 0.662876 0.170180
vt 0.830344 0.654619
vt 0.629783 0.154476
vt 0.855297 0.642117
vt 0.962413 0.899999
vt 0.945975 0.974469
vt 0.904998 0.917827
vt 0.724364 0.156960
vt 0.843480 0.213319
vt 0.510385 0.208665
vt 0.515007 0.284571
vt 0.365132 0.760725
vt 0.525158 0.802170
vt 0.807600 0.308075
vt 0.425368 0.809388
vt 0.047652 0.845191
vt 0.116434 0.831405
vt 0.091964 0.853391
vn 0.039100 -0.998500 -0.038000
vn 0.086600 -0.994000 0.066700
vn 0.010100 -0.998600 0.052500
vn -0.268800 -0.734200 -0.623400
vn -0.276400 -0.735400 -0.618700
vn -0.382200 -0.689300 -0.615500
vn -0.312200 -0.624000 -0.716400
vn -0.558600 0.237400 -0.794700
vn -0.564000 0.228100 -0.793600
vn -0.559500 0.257200 -0.787900
vn 0.028400 -0.949600 -0.312200
vn 0.035600 -0.949300 -0.312300
vn 0.047900 -0.952300 -0.301300
vn -0.523800 -0.848900 -0.071000
vn -0.408800 -0.906600 -0.104400
vn -0.499200 -0.866500 -0.003400
vn -0.347900 0.031000 -0.937000
vn -0.368600 0.003700 -0.929600
vn -0.352800 -0.251400 -0.901300
vn -0.383400 0.016900 -0.923400
vn -0.005800 -0.628900 0.777500
vn 0.190000 -0.479100 0.857000
vn -0.032200 -0.619800 0.784100
vn -0.400600 0.208600 -0.892200
vn -0.412100 0.189000 -0.891300
vn -0.412800 0.214900 -0.885100
vn -0.722100 -0.606800 0.332300
vn -0.708700 -0.625800 0.325800
vn -0.716600 -0.606800 0.343800
vn -0.662200 0.147000 -0.734700
vn -0.623400 0.196900 -0.756700
vn -0.623800 0.195600 -0.756700
vn -0.572500 0.257200 -0.778500
vn -0.555600 0.155900 -0.816700
vn -0.623300 0.355600 -0.696500
vn -0.663600 -0.591000 0.458600
vn -0.834000 -0.049200 0.549600
vn -0.497600 -0.866100 -0.048300
vn -0.550900 -0.699300 0.455500
vn -0.573900 -0.612600 0.543500
vn -0.890600 -0.168600 0.422500
vn -0.916800 0.091700 -0.388700
vn -0.916100 0.086700 -0.391500
vn -0.918900 0.081000 -0.386100
vn -0.391800 0.606900 -0.691500
vn -0.426800 0.565600 -0.705600
vn -0.421000 0.624200 -0.658200
vn -0.713400 0.651200 -0.258900
vn -0.675800 0.688700 -0.262600
vn -0.671300 0.678900 -0.297300
vn -0.795200 0.562300 -0.226900
vn -0.801800 0.544000 -0.247500
vn -0.802900 0.559400 -0.205900
vn -0.907700 -0.263700 0.326500
vn -0.685700 -0.564200 -0.459900
vn -0.890900 -0.452600 0.037300
vn -0.933700 -0.129900 -0.333700
vn -0.961700 0.024100 -0.272900
vn -0.926000 0.011900 -0.377400
vn -0.806400 -0.023900 -0.590900
vn -0.832300 -0.009200 -0.554300
vn -0.810600 0.143200 -0.567800
vn -0.008500 -0.485000 0.874500
vn -0.015200 -0.488600 0.872300
vn -0.016800 -0.492100 0.870400
vn -0.000400 -0.949300 -0.314500
vn -0.013800 -0.947600 -0.319000
vn 0.015100 -0.949900 -0.312100
vn -0.209200 0.908800 -0.360900
vn -0.187500 0.907900 -0.374800
vn -0.489000 0.544300 -0.681700
vn -0.945900 0.285000 0.155300
vn -0.952300 0.279600 0.122300
vn -0.953500 0.263800 0.145700
vn -0.752700 -0.654400 -0.071900
vn -0.750800 -0.660300 -0.018500
vn -0.762300 -0.642400 -0.079100
vn -0.345500 0.690600 0.635400
vn -0.210300 0.719300 0.662100
vn -0.374000 0.772300 0.513500
vn -0.669600 -0.724900 -0.161700
vn -0.607500 -0.779700 -0.151600
vn -0.611900 -0.782700 -0.113800
vn 0.007400 -0.020800 0.999800
vn 0.002900 -0.042400 0.999100
vn 0.055800 -0.073700 0.995700
vn -0.770500 0.042700 0.636000
vn -0.743700 0.061100 0.665700
vn -0.811800 0.029200 0.583200
vn -0.413400 -0.052800 -0.909000
vn -0.404700 -0.168100 -0.898900
vn -0.570900 -0.057000 -0.819100
vn -0.448900 -0.691200 0.566400
vn -0.337000 -0.719700 0.607000
vn -0.460100 -0.652300 0.602400
vn -0.334000 -0.673600 0.659300
vn 0.126000 -0.989500 0.070500
vn -0.059500 -0.991100 0.119100
vn 0.022100 -0.994200 -0.105600
vn 0.137900 0.245100 -0.959600
vn 0.141400 0.233700 -0.962000
vn 0.140700 0.231400 -0.962600
vn 0.129200 0.224600 -0.965800
vn 0.009000 -0.069000 0.997600
vn 0.030900 -0.072300 0.996900
vn -0.347100 -0.921400 0.175000
vn -0.392500 -0.890200 0.231200
vn -0.411200 -0.885500 0.216400
vn -0.680200 -0.587000 -0.438900
vn -0.264600 -0.890600 -0.369900
vn 0.003500 -0.496100 0.868300
vn -0.602800 -0.796100 0.053300
vn -0.598000 -0.800300 0.044400
vn -0.584000 -0.809700 0.057600
vn 0.004500 0.534500 0.845200
vn 0.000400 0.566000 0.824400
vn 0.007800 0.566900 0.823800
vn -0.017600 0.568600 0.822500
vn -0.667000 -0.730700 0.145700
vn -0.667700 -0.725100 0.168400
vn -0.674600 -0.719800 0.163900
vn -0.525800 -0.805700 0.272600
vn -0.533400 -0.796000 0.286100
vn -0.535600 -0.797300 0.278200
vn -0.024300 -0.921200 0.388300
vn -0.014700 -0.902300 0.430800
vn -0.017400 -0.901500 0.432500
vn -0.841200 -0.468100 0.270800
vn -0.841000 -0.496900 0.213900
vn -0.441600 -0.832100 0.335500
vn 0.274600 -0.921800 -0.273700
vn 0.312100 -0.909100 -0.275900
vn 0.212400 -0.971000 -0.109400
vn 0.412700 0.552600 0.724100
vn 0.445300 0.524600 0.725600
vn 0.420300 0.570600 0.705500
vn 0.417600 0.561700 0.714200
vn 0.920900 -0.134500 0.365900
vn 0.969000 -0.081700 0.233200
vn 0.953800 0.000600 0.300500
vn 0.290500 -0.616500 0.731900
vn 0.424900 -0.577300 0.697300
vn 0.348900 -0.548900 0.759500
vn 0.495200 -0.863600 -0.094900
vn 0.455100 -0.890100 -0.024400
vn 0.383900 -0.912900 -0.138700
vn 0.436000 -0.036200 -0.899200
vn 0.367600 -0.000400 -0.930000
vn 0.265200 0.066400 -0.961900
vn 0.357900 0.274900 -0.892400
vn -0.421500 -0.820300 -0.386600
vn -0.453200 -0.818400 -0.353300
vn -0.445000 -0.807200 -0.387900
vn 0.287300 0.014000 -0.957700
vn 0.290900 0.016000 -0.956600
vn 0.293200 0.012400 -0.956000
vn -0.121400 -0.984100 0.129500
vn -0.090400 -0.974000 0.207700
vn -0.105700 -0.973800 0.201400
vn 0.321200 -0.944800 -0.064000
vn 0.374300 -0.926700 -0.032300
vn 0.382400 -0.922500 0.052300
vn 0.257300 -0.966300 0.010600
vn 0.809300 0.025100 -0.586900
vn 0.809000 0.026600 -0.587200
vn 0.843500 0.047600 -0.535100
vn 0.806700 0.290300 -0.514800
vn 0.798800 0.284600 -0.530000
vn 0.798800 0.299500 -0.521700
vn 0.510700 0.859300 0.027800
vn 0.560700 0.825800 0.060600
vn 0.538400 0.842700 -0.006100
vn 0.528500 0.193200 -0.826700
vn 0.499100 0.275000 -0.821700
vn 0.503600 0.276200 -0.818600
vn 0.895300 -0.146600 -0.420600
vn 0.965800 0.013000 -0.259000
vn 0.933500 -0.137300 -0.331300
vn 0.831100 0.130400 -0.540700
vn 0.828700 -0.031600 -0.558700
vn 0.814400 -0.034200 -0.579200
vn 0.469700 0.382800 -0.795600
vn 0.274300 0.821600 -0.499700
vn 0.296700 0.819200 -0.490800
vn 0.956800 0.253200 -0.142900
vn 0.628000 0.774000 -0.080800
vn 0.628900 0.774100 -0.072100
vn 0.924700 0.328100 0.192900
vn 0.920100 0.349800 0.176200
vn 0.915000 0.345000 0.209300
vn 0.782600 -0.620300 -0.052200
vn 0.766600 -0.642000 0.006300
vn 0.769900 -0.637600 -0.024500
vn 0.612800 -0.783400 -0.103700
vn 0.611700 -0.776300 -0.152200
vn 0.650600 -0.735800 -0.188200
vn -0.793200 -0.464900 0.393400
vn -0.794600 -0.482300 0.368700
vn -0.786700 -0.475700 0.393500
vn -0.021700 -0.171100 0.985000
vn 0.778200 -0.518300 -0.354600
vn 0.987300 -0.148800 -0.055400
vn 0.584000 -0.809700 0.057600
vn 0.600700 -0.798300 0.043100
vn 0.603300 -0.795800 0.052700
vn -0.486000 -0.852600 0.192000
vn -0.450200 -0.868900 0.205800
vn -0.430700 -0.856800 0.283500
vn 0.017300 -0.901400 0.432600
vn 0.014800 -0.902700 0.430100
vn 0.044900 -0.917100 0.396100
vn -0.704200 -0.702700 -0.101200
vn -0.552200 -0.824500 0.123400
vn -0.572700 -0.789600 0.220600
vn -0.701900 -0.224700 0.676000
vn -0.802600 -0.249200 0.542100
vn -0.740900 -0.425500 0.519700
vn -0.276200 -0.643500 0.713900
vn -0.233900 -0.673200 0.701400
vn -0.227000 -0.640100 0.734000
vn -0.360400 -0.093900 -0.928100
vn -0.356700 -0.095700 -0.929300
vn -0.361400 -0.097900 -0.927200
vn -0.375100 0.926100 0.039300
vn -0.338800 0.940800 -0.001600
vn -0.383300 0.922900 -0.037100
vn -0.499100 0.275000 -0.821700
vn -0.554900 0.207900 -0.805500
vn -0.503600 0.276200 -0.818600
vn -0.004600 -0.492500 0.870300
vn -0.006300 -0.498400 0.866900
vn -0.001000 -0.501500 0.865100
vn -0.983000 0.042500 -0.178800
vn -0.973200 -0.063300 -0.220900
vn -0.991100 -0.077300 -0.108200
vn -0.476200 0.872700 -0.107900
vn -0.894300 0.419700 -0.155200
vn -0.476100 0.873800 -0.099000
vn -0.069900 -0.983800 -0.165200
vn -0.071400 -0.983300 -0.167200
vn -0.069300 -0.983700 -0.165700
vn -0.908100 -0.363900 0.207100
vn -0.864700 -0.445800 0.231400
vn -0.848000 -0.429300 0.310800
vn -0.841900 -0.311100 0.441000
vn -0.883900 -0.187500 0.428500
vn -0.865300 -0.393600 0.310500
vn -0.872800 -0.393800 0.288300
vn -0.337200 0.481700 0.808800
vn -0.233400 0.443100 0.865600
vn -0.283600 0.599100 0.748700
vn 0.834900 -0.447800 0.320000
vn 0.832400 -0.432800 0.346100
vn 0.826500 -0.447700 0.341200
vn -0.979000 -0.203700 -0.002400
vn -0.976900 -0.212500 -0.021300
vn -0.974600 -0.223900 -0.001600
vn -0.687800 -0.665700 0.289400
vn -0.788500 -0.552900 0.269300
vn -0.848900 -0.528500 0.005000
vn -0.115400 -0.990400 -0.076700
vn -0.104800 -0.979500 -0.172200
vn -0.036800 -0.995900 -0.082200
vn 0.911400 -0.340700 0.230700
vn 0.914800 -0.395000 0.084500
vn 0.955900 -0.245900 0.160500
vn 0.607000 -0.253500 0.753100
vn 0.583700 -0.153100 0.797400
vn 0.523700 -0.234700 0.818900
vn 0.269900 -0.637200 0.721900
vn 0.215500 -0.644900 0.733200
vn 0.236800 -0.670600 0.703000
vn 0.647300 0.078100 -0.758200
vn 0.641200 0.064600 -0.764700
vn 0.629600 0.058200 -0.774700
vn 0.664700 0.123200 -0.736900
vn 0.688400 0.219800 -0.691200
vn 0.735500 0.312800 -0.601000
vn 0.824200 -0.033900 0.565200
vn 0.720800 -0.598200 0.350200
vn 0.518400 -0.849000 -0.102400
vn 0.979700 0.086600 -0.180700
vn 0.982100 0.070400 -0.174900
vn 0.979200 0.086000 -0.183900
vn 0.249000 0.492500 -0.833900
vn 0.244300 0.542600 -0.803700
vn 0.261100 0.524000 -0.810700
vn 0.604400 0.792900 0.077500
vn 0.580500 0.802500 0.138100
vn 0.625000 0.775200 0.091900
vn 0.587100 0.552700 -0.591500
vn 0.594300 0.497800 -0.631600
vn 0.565100 0.526400 -0.635200
vn 0.912000 0.374600 0.166900
vn 0.915300 0.383200 0.123700
vn 0.908800 0.394200 0.136400
vn 0.326100 -0.865700 0.379800
vn 0.324900 -0.868300 0.374800
vn 0.334200 -0.891100 0.306900
vn 0.987900 0.027000 -0.152500
vn 0.984400 -0.118700 -0.129600
vn 0.973300 -0.068600 -0.219000
vn 0.201500 0.716200 0.668200
vn 0.332700 0.717100 0.612500
vn 0.334200 0.800000 0.498300
vn 0.808800 -0.222800 0.544200
vn 0.799600 -0.236700 0.551800
vn 0.825700 -0.283200 0.487800
vn 0.755800 0.222000 0.616000
vn 0.796400 0.263600 0.544300
vn 0.712800 0.254000 0.653800
vn 0.958400 -0.270000 0.092800
vn 0.936800 -0.293100 0.191000
vn 0.918900 -0.368500 0.140700
vn 0.423900 -0.189300 -0.885700
vn 0.444200 -0.001700 -0.895900
vn 0.562600 -0.034000 -0.826100
vn 0.521600 -0.514900 -0.680300
vn 0.490400 -0.422200 -0.762400
vn 0.529900 -0.515100 -0.673700
vn 0.411100 -0.792100 0.451200
vn 0.466300 -0.819400 0.333400
vn 0.635900 -0.720100 0.277600
vn 0.981800 -0.188600 -0.022200
vn 0.977000 -0.211100 -0.030100
vn 0.980200 -0.193300 -0.041700
vn 0.667700 -0.725100 0.168400
vn 0.667000 -0.730700 0.145700
vn 0.673500 -0.720400 0.165700
vn 0.731100 -0.671800 0.119600
vn 0.723800 -0.681800 0.106200
vn 0.729900 -0.676000 0.101300
vn 0.841600 -0.495600 0.214800
vn 0.834300 -0.474200 0.281300
vn 0.449600 -0.852300 0.267200
vn -0.492100 0.550300 0.674600
vn -0.454800 0.563200 0.689900
vn -0.467300 0.581800 0.665700
vn -0.471400 0.564300 0.677800
usemtl None
s off
f 3/1/1 1/2/2 13/3/3
f 10/4/4 22/5/5 62/6/6 8/7/7
f 5/8/8 15/9/9 14/10/10
f 16/11/11 37/12/12 36/13/13
f 11/14/14 36/13/15 7/15/16
f 25/16/17 21/17/18 20/18/19 18/19/20
f 25/19/21 18/18/22 54/20/23
f 14/10/24 15/9/25 19/21/26
f 26/22/27 14/23/28 19/24/29
f 26/22/30 21/25/31 2/26/32
f 2/26/33 27/27/34 26/22/35
f 14/23/36 26/22/37 27/27/38
f 28/28/39 14/23/40 27/27/41
f 14/10/42 28/29/43 5/8/44
f 5/8/45 29/30/46 15/9/47
f 29/30/48 5/8/49 12/31/50
f 28/29/51 12/31/52 5/8/53
f 27/27/54 33/32/55 28/28/56
f 2/33/57 25/34/58 23/35/59
f 2/33/60 21/16/61 25/34/62
f 25/19/63 54/20/64 31/36/65
f 31/36/66 22/37/67 23/38/68
f 27/27/69 32/39/70 33/32/71
f 28/29/72 6/40/73 12/31/74
f 6/41/75 33/32/76 35/42/77
f 33/32/78 17/43/79 34/44/80
f 34/44/81 35/42/82 33/32/83
f 39/45/84 59/46/85 35/44/86 34/47/85
f 17/43/87 4/48/88 34/44/89
f 10/49/90 7/15/91 22/37/92
f 16/11/93 36/13/94 11/14/95 50/50/96
f 8/7/97 62/6/98 9/51/99
f 56/52/100 19/21/101 15/9/102 45/53/103
f 38/54/104 39/47/104 34/44/105
f 34/44/106 4/48/107 38/54/108
f 36/55/109 3/56/110 13/57/111
f 2/33/112 1/58/113 32/59/114
f 30/60/115 35/60/116 24/61/117 59/45/118
f 17/62/119 32/59/120 1/58/121
f 17/63/122 1/64/123 3/65/124
f 13/57/125 1/58/126 2/33/127
f 10/49/128 11/14/129 7/15/130
f 43/66/131 38/67/132 44/68/133
f 48/69/134 30/60/135 59/70/136 46/71/137
f 51/72/138 9/51/139 62/6/140
f 43/66/141 44/68/142 63/73/143
f 47/74/144 53/75/145 61/76/146
f 20/77/147 52/78/148 54/79/149 18/18/150
f 26/80/151 56/81/152 52/78/153
f 52/78/154 20/82/155 26/80/156
f 26/80/157 19/83/158 56/81/159
f 16/11/160 50/50/161 47/74/162 61/76/163
f 42/84/164 52/78/165 56/81/166
f 45/53/167 58/85/168 55/86/169
f 58/85/170 29/30/171 30/60/172
f 57/87/173 41/88/174 42/84/175
f 31/89/176 54/79/177 42/90/178
f 54/79/179 52/91/180 42/90/181
f 60/92/182 41/88/183 57/87/184
f 60/92/185 43/93/186 41/88/187
f 48/69/188 46/94/189 60/95/190
f 59/45/191 60/92/192 46/71/193
f 60/92/194 59/45/195 39/96/196
f 31/36/197 61/76/198 53/75/199
f 49/97/200 44/68/201 61/98/202
f 41/99/203 40/100/204 42/90/205
f 63/101/206 44/102/207 49/103/208
f 42/90/209 40/100/210 49/97/211
f 4/104/212 17/62/213 3/56/214
f 8/7/215 9/51/216 50/105/217
f 22/37/218 7/15/219 23/38/220
f 20/17/221 21/25/222 26/22/223
f 29/30/224 12/31/225 30/60/226
f 32/39/227 27/27/228 2/26/229
f 25/19/230 31/36/231 23/38/232
f 23/35/233 13/57/234 2/33/235
f 17/43/236 33/32/237 32/39/238
f 28/28/239 33/32/240 6/41/241
f 37/106/242 4/104/243 36/55/244
f 10/4/245 8/7/246 50/105/247 11/107/248
f 38/108/249 4/104/250 37/106/251
f 36/13/252 23/38/253 7/15/254
f 23/35/255 36/55/256 13/57/257
f 3/56/258 36/55/259 4/104/260
f 40/109/261 63/110/262 49/111/263
f 51/72/264 47/112/265 9/51/266
f 50/50/267 9/113/268 47/74/269
f 22/37/270 31/36/271 53/75/272
f 45/114/273 55/115/274 56/81/275
f 57/87/276 42/84/277 56/81/278
f 56/81/279 55/115/280 57/87/281
f 55/86/282 58/85/283 60/95/284
f 29/30/285 45/53/286 15/9/287
f 48/69/288 58/85/289 30/60/290
f 45/53/291 29/30/292 58/85/293
f 58/85/294 48/69/295 60/95/296
f 55/115/297 60/92/298 57/87/299
f 31/89/300 42/90/301 49/97/302
f 43/93/303 60/92/304 39/96/305
f 38/116/306 43/93/307 39/96/308
f 44/68/309 38/67/310 16/117/311
f 16/117/312 61/98/313 44/68/314
f 53/75/315 51/118/316 22/37/317
f 51/72/318 62/6/319 22/5/320
f 16/117/321 38/67/322 37/119/323
f 31/89/324 49/97/325 61/98/326
f 41/99/327 43/66/328 40/100/329
f 40/120/330 43/121/331 63/122/332
f 47/74/333 51/118/334 53/75/335
f 30/31/336 12/40/337 6/42/338 35/60/339
